<svg class="animated" id="freepik_stories-paid-idea" xmlns="http://www.w3.org/2000/svg" viewBox="0 0 500 500" version="1.1" xmlns:xlink="http://www.w3.org/1999/xlink" xmlns:svgjs="http://svgjs.com/svgjs"><style>svg#freepik_stories-paid-idea:not(.animated) .animable {opacity: 0;}svg#freepik_stories-paid-idea.animated #freepik--speech-bubble-2--inject-70 {animation: 1.5s Infinite  linear shake;animation-delay: 0s;}svg#freepik_stories-paid-idea.animated #freepik--speech-bubble-1--inject-70 {animation: 1.5s Infinite  linear shake;animation-delay: 0s;}svg#freepik_stories-paid-idea.animated #freepik--character-2--inject-70 {animation: 1.5s Infinite  linear shake;animation-delay: 0s;}svg#freepik_stories-paid-idea.animated #freepik--character-1--inject-70 {animation: 1.5s Infinite  linear shake;animation-delay: 0s;}            @keyframes shake {                10%, 90% {                    transform: translate3d(-1px, 0, 0);                  }                  20%, 80% {                    transform: translate3d(2px, 0, 0);                  }                  30%, 50%, 70% {                    transform: translate3d(-4px, 0, 0);                  }                  40%, 60% {                    transform: translate3d(4px, 0, 0);                  }            }        </style><g id="freepik--background-complete--inject-70" class="animable" style="transform-origin: 250px 228.23px;"><rect y="382.4" width="500" height="0.25" style="fill: rgb(235, 235, 235); transform-origin: 250px 382.525px;" id="eluahuo27jrrn" class="animable"></rect><rect x="416.78" y="398.49" width="33.12" height="0.25" style="fill: rgb(235, 235, 235); transform-origin: 433.34px 398.615px;" id="el5kmwz5lakk3" class="animable"></rect><rect x="322.53" y="401.21" width="8.69" height="0.25" style="fill: rgb(235, 235, 235); transform-origin: 326.875px 401.335px;" id="el5e9zcjeye6t" class="animable"></rect><rect x="396.59" y="389.21" width="19.19" height="0.25" style="fill: rgb(235, 235, 235); transform-origin: 406.185px 389.335px;" id="elp5h73opr89g" class="animable"></rect><rect x="52.46" y="390.89" width="43.19" height="0.25" style="fill: rgb(235, 235, 235); transform-origin: 74.055px 391.015px;" id="elzu2elz60vvb" class="animable"></rect><rect x="104.56" y="390.89" width="6.33" height="0.25" style="fill: rgb(235, 235, 235); transform-origin: 107.725px 391.015px;" id="elyjj2g4757" class="animable"></rect><rect x="131.47" y="395.11" width="93.68" height="0.25" style="fill: rgb(235, 235, 235); transform-origin: 178.31px 395.235px;" id="elxohxpzo4fxf" class="animable"></rect><path d="M237,337.8H43.91a5.71,5.71,0,0,1-5.7-5.71V60.66A5.71,5.71,0,0,1,43.91,55H237a5.71,5.71,0,0,1,5.71,5.71V332.09A5.71,5.71,0,0,1,237,337.8ZM43.91,55.2a5.46,5.46,0,0,0-5.45,5.46V332.09a5.46,5.46,0,0,0,5.45,5.46H237a5.47,5.47,0,0,0,5.46-5.46V60.66A5.47,5.47,0,0,0,237,55.2Z" style="fill: rgb(235, 235, 235); transform-origin: 140.46px 196.4px;" id="elkg0lkcimeo" class="animable"></path><path d="M453.31,337.8H260.21a5.72,5.72,0,0,1-5.71-5.71V60.66A5.72,5.72,0,0,1,260.21,55h193.1A5.71,5.71,0,0,1,459,60.66V332.09A5.71,5.71,0,0,1,453.31,337.8ZM260.21,55.2a5.47,5.47,0,0,0-5.46,5.46V332.09a5.47,5.47,0,0,0,5.46,5.46h193.1a5.47,5.47,0,0,0,5.46-5.46V60.66a5.47,5.47,0,0,0-5.46-5.46Z" style="fill: rgb(235, 235, 235); transform-origin: 356.75px 196.4px;" id="el9bz9rb57zne" class="animable"></path><polygon points="443.58 380.85 443.58 331.54 420.82 331.54 420.82 285.81 417.61 285.81 417.61 312.02 408.86 312.02 408.86 304.77 393.1 304.77 393.1 279.67 390.18 279.67 390.18 249 387.85 249 387.85 279.11 382.3 279.11 382.3 323.73 371.8 323.73 371.8 279.11 352.83 279.11 352.83 316.85 332.92 316.85 332.92 271.11 329.71 271.11 329.71 297.32 320.96 297.32 320.96 290.07 305.2 290.07 305.2 264.98 302.28 264.98 302.28 234.3 299.95 234.3 299.95 264.42 294.4 264.42 294.4 309.04 283.9 309.04 283.9 264.42 264.93 264.42 264.93 307.58 252.14 307.58 252.14 282.48 249.22 282.48 249.22 251.81 246.89 251.81 246.89 281.92 241.35 281.92 241.35 326.54 230.84 326.54 230.84 281.92 211.88 281.92 211.88 326.54 202.54 326.54 202.54 331.54 186.18 331.54 186.18 285.81 182.97 285.81 182.97 312.02 174.22 312.02 174.22 304.77 158.46 304.77 158.46 279.67 155.54 279.67 155.54 249 153.21 249 153.21 279.11 148.12 279.11 148.12 276.6 129.15 276.6 129.15 279.11 118.65 279.11 118.65 276.6 113.1 276.6 113.1 246.48 110.77 246.48 110.77 277.16 107.85 277.16 107.85 302.26 92.09 302.26 92.09 309.51 83.34 309.51 83.34 283.29 80.13 283.29 80.13 329.03 57.37 329.03 57.37 380.85 443.58 380.85" style="fill: rgb(235, 235, 235); transform-origin: 250.475px 307.575px;" id="eln2ficv9p37" class="animable"></polygon><g id="el3berqfmtrk4"><circle cx="139.63" cy="125.72" r="27.79" style="fill: rgb(250, 250, 250); transform-origin: 139.63px 125.72px; transform: rotate(-22.5deg);" class="animable"></circle></g><path d="M125.21,125.4a4.83,4.83,0,0,0-4.83-4.83,4.92,4.92,0,0,0-1.39.21,10.45,10.45,0,0,0,.11-1.49,10.23,10.23,0,0,0-10.23-10.22,10.6,10.6,0,0,0-1.88.17,8.94,8.94,0,0,0-16.58,4.52h-.15a8.24,8.24,0,0,0,0,16.48h30.26A4.83,4.83,0,0,0,125.21,125.4Z" style="fill: rgb(240, 240, 240); transform-origin: 103.615px 117.591px;" id="el4q8q5uhx6e2" class="animable"></path><path d="M429.5,192.33a4.83,4.83,0,0,0-4.83-4.83,4.92,4.92,0,0,0-1.39.2A10.21,10.21,0,0,0,413.16,176a9.74,9.74,0,0,0-1.88.18,8.94,8.94,0,0,0-16.58,4.52h-.15a8.24,8.24,0,0,0,0,16.48h30.26A4.82,4.82,0,0,0,429.5,192.33Z" style="fill: rgb(240, 240, 240); transform-origin: 407.911px 184.531px;" id="eld8cf629qay6" class="animable"></path><path d="M286.43,119a7.65,7.65,0,0,1,7.65-7.64,7.53,7.53,0,0,1,2.19.32,16.56,16.56,0,0,1-.17-2.35,16.19,16.19,0,0,1,16.18-16.18,16.38,16.38,0,0,1,3,.28,14.14,14.14,0,0,1,26.23,7.15h.23a13,13,0,1,1,0,26.07H293.86A7.63,7.63,0,0,1,286.43,119Z" style="fill: rgb(240, 240, 240); transform-origin: 320.602px 106.635px;" id="elckprkst7cwc" class="animable"></path><path d="M145.2,202.19A9.19,9.19,0,0,1,157,193.38a20.12,20.12,0,0,1-.21-2.82,19.45,19.45,0,0,1,23.07-19.14,17,17,0,0,1,31.56,8.6h.29a15.69,15.69,0,0,1,0,31.38H154.13v0A9.18,9.18,0,0,1,145.2,202.19Z" style="fill: rgb(240, 240, 240); transform-origin: 186.3px 187.297px;" id="els2uaiy3qdy" class="animable"></path><path d="M185.82,139.87A3,3,0,0,0,182,137a7,7,0,0,0,.06-.92,6.35,6.35,0,0,0-6.36-6.36,6.45,6.45,0,0,0-1.17.11,5.55,5.55,0,0,0-10.3,2.81h-.1a5.13,5.13,0,0,0,0,10.25H182.9A3,3,0,0,0,185.82,139.87Z" style="fill: rgb(240, 240, 240); transform-origin: 172.523px 135.02px;" id="el4g3h49vmpli" class="animable"></path><path d="M76.44,231.07a3,3,0,0,1,3.87-2.87,7,7,0,0,1-.07-.93,6.35,6.35,0,0,1,6.36-6.35,5.66,5.66,0,0,1,1.17.11,5.56,5.56,0,0,1,10.31,2.81h.09a5.13,5.13,0,1,1,0,10.25H79.36A3,3,0,0,1,76.44,231.07Z" style="fill: rgb(240, 240, 240); transform-origin: 89.9832px 226.227px;" id="elboea7q7fwl" class="animable"></path><path d="M357.93,240.87a3,3,0,0,1,3-3,2.71,2.71,0,0,1,.86.13,7,7,0,0,1-.07-.93,6.35,6.35,0,0,1,6.36-6.35,6.45,6.45,0,0,1,1.17.1,5.56,5.56,0,0,1,10.31,2.81h.09a5.13,5.13,0,0,1,0,10.25H360.85A3,3,0,0,1,357.93,240.87Z" style="fill: rgb(240, 240, 240); transform-origin: 371.242px 236.014px;" id="eldzvtdlxnvs6" class="animable"></path><polygon points="390.53 120.75 347.77 185.85 345.89 188.71 342.17 190.44 209.85 251.93 222.93 296.71 225.92 306.95 215.55 315.51 126.28 382.25 52.42 382.25 185.97 291.35 177.88 247.3 175.68 235.31 186.02 230.55 327.05 165.62 372.98 108.81 360.65 106.37 399.38 90.3 397.4 132.19 390.53 120.75" style="fill: rgb(224, 224, 224); transform-origin: 225.9px 236.275px;" id="elsh0xpel7mtj" class="animable"></polygon></g><g id="freepik--Shadow--inject-70" class="animable" style="transform-origin: 250px 416.24px;"><ellipse id="freepik--path--inject-70" cx="250" cy="416.24" rx="193.89" ry="11.32" style="fill: rgb(245, 245, 245); transform-origin: 250px 416.24px;" class="animable"></ellipse></g><g id="freepik--Scale--inject-70" class="animable" style="transform-origin: 238.825px 348.305px;"><polygon points="291.73 282.07 284.09 283.31 286.97 301.01 244.67 326.52 196.47 315.73 193.59 298.03 185.94 299.27 189.8 322.96 247.72 346.44 247.75 346.67 247.92 346.52 248.13 346.61 248.09 346.38 295.58 305.76 291.73 282.07" style="fill: rgb(38, 50, 56); transform-origin: 240.76px 314.37px;" id="elrbau7biakvc" class="animable"></polygon><g id="els9qq0hwu2j"><polygon points="291.73 282.07 284.09 283.31 286.97 301.01 244.67 326.52 196.47 315.73 193.59 298.03 185.94 299.27 189.8 322.96 247.72 346.44 247.75 346.67 247.92 346.52 248.13 346.61 248.09 346.38 295.58 305.76 291.73 282.07" style="fill: rgb(255, 255, 255); opacity: 0.2; transform-origin: 240.76px 314.37px;" class="animable"></polygon></g><polygon points="299.49 287.26 276.7 287.29 263.51 280.06 312.66 279.99 299.49 287.26" style="fill: rgb(38, 50, 56); transform-origin: 288.085px 283.64px;" id="el954hy68udlp" class="animable"></polygon><path d="M316.77,281.17l-57.36.08a1.65,1.65,0,0,1-1.65-1.65h0A1.64,1.64,0,0,1,259.4,278l57.36-.08a1.67,1.67,0,0,1,1.66,1.65h0A1.65,1.65,0,0,1,316.77,281.17Z" style="fill: rgb(38, 50, 56); transform-origin: 288.09px 279.585px;" id="ellxsv3acrea" class="animable"></path><polygon points="178.17 303.32 200.97 303.28 214.13 296.01 164.98 296.09 178.17 303.32" style="fill: rgb(38, 50, 56); transform-origin: 189.555px 299.665px;" id="elvpd4m1n9s7d" class="animable"></polygon><path d="M160.88,297.28l57.36-.09a1.66,1.66,0,0,0,1.65-1.65h0a1.65,1.65,0,0,0-1.65-1.65l-57.37.1a1.64,1.64,0,0,0-1.64,1.65h0A1.64,1.64,0,0,0,160.88,297.28Z" style="fill: rgb(38, 50, 56); transform-origin: 189.56px 295.585px;" id="elfmzejjx7s9j" class="animable"></path><path d="M258.79,398.63H232.94V333.86a12.93,12.93,0,0,1,12.93-12.92h0a12.92,12.92,0,0,1,12.92,12.92Z" style="fill: rgb(38, 50, 56); transform-origin: 245.865px 359.785px;" id="elsuja3y186y" class="animable"></path><g id="elt4yis0pgopn"><path d="M258.79,398.63H232.94V333.86a12.93,12.93,0,0,1,12.93-12.92h0a12.92,12.92,0,0,1,12.92,12.92Z" style="fill: rgb(255, 255, 255); opacity: 0.3; transform-origin: 245.865px 359.785px;" class="animable"></path></g><polygon points="272.5 411.12 219.23 411.12 228.41 393.88 263.32 393.88 272.5 411.12" style="fill: rgb(38, 50, 56); transform-origin: 245.865px 402.5px;" id="el3d50afe0wwr" class="animable"></polygon><g id="elyxgkho97nw"><polygon points="272.5 411.12 219.23 411.12 228.41 393.88 263.32 393.88 272.5 411.12" style="fill: rgb(255, 255, 255); opacity: 0.2; transform-origin: 245.865px 402.5px;" class="animable"></polygon></g><path d="M213.24,409.11H278.5a4.8,4.8,0,0,1,4.8,4.8v4.78a0,0,0,0,1,0,0H208.44a0,0,0,0,1,0,0v-4.78A4.8,4.8,0,0,1,213.24,409.11Z" style="fill: rgb(38, 50, 56); transform-origin: 245.87px 413.9px;" id="elkqcwvd5xjz" class="animable"></path><circle cx="245.87" cy="335.22" r="4.65" style="fill: rgb(38, 50, 56); transform-origin: 245.87px 335.22px;" id="elxr20sx04qjt" class="animable"></circle></g><g id="freepik--speech-bubble-2--inject-70" class="animable" style="transform-origin: 339.45px 115.1px;"><path d="M325.09,89.81h28.73a8.84,8.84,0,0,1,8.84,8.84v25a8.84,8.84,0,0,1-8.84,8.85H342.45l-3,7.89-3-7.89H325.09a8.85,8.85,0,0,1-8.85-8.85v-25A8.84,8.84,0,0,1,325.09,89.81Z" style="fill: rgb(64, 123, 255); transform-origin: 339.45px 115.1px;" id="el3gtqrba7c6d" class="animable"></path><g id="el4esrwy2y8ez"><path d="M325.09,89.81h28.73a8.84,8.84,0,0,1,8.84,8.84v25a8.84,8.84,0,0,1-8.84,8.85H342.45l-3,7.89-3-7.89H325.09a8.85,8.85,0,0,1-8.85-8.85v-25A8.84,8.84,0,0,1,325.09,89.81Z" style="fill: rgb(255, 255, 255); opacity: 0.7; transform-origin: 339.45px 115.1px;" class="animable"></path></g><path d="M339.45,106.09c-5.77-6-12.24-3.53-12.24,2.31s12.24,13.93,12.24,13.93,12.24-8.08,12.24-13.93S345.22,100.09,339.45,106.09Z" style="fill: rgb(64, 123, 255); transform-origin: 339.45px 112.478px;" id="eluuuw587xxo" class="animable"></path></g><g id="freepik--speech-bubble-1--inject-70" class="animable" style="transform-origin: 134.03px 142.81px;"><path d="M148.4,117.52H119.67a8.84,8.84,0,0,0-8.85,8.84v25a8.85,8.85,0,0,0,8.85,8.85H131l3,7.89,3-7.89H148.4a8.84,8.84,0,0,0,8.84-8.85v-25A8.84,8.84,0,0,0,148.4,117.52Z" style="fill: rgb(64, 123, 255); transform-origin: 134.03px 142.81px;" id="elf6mqd3t6emm" class="animable"></path><g id="el6zcj3q77d5p"><path d="M148.4,117.52H119.67a8.84,8.84,0,0,0-8.85,8.84v25a8.85,8.85,0,0,0,8.85,8.85H131l3,7.89,3-7.89H148.4a8.84,8.84,0,0,0,8.84-8.85v-25A8.84,8.84,0,0,0,148.4,117.52Z" style="fill: rgb(255, 255, 255); opacity: 0.7; transform-origin: 134.03px 142.81px;" class="animable"></path></g><path d="M132.54,145.12a1.31,1.31,0,0,1-1-.46l-5.6-6.59a1.31,1.31,0,1,1,2-1.7l4.6,5.42,7.59-8.94a1.31,1.31,0,1,1,2,1.69l-8.58,10.12A1.33,1.33,0,0,1,132.54,145.12Z" style="fill: rgb(255, 255, 255); transform-origin: 134.048px 138.735px;" id="el27zg6kv7sd" class="animable"></path><g id="el7e0hg4ipjyq"><circle cx="134.03" cy="138.75" r="14.26" style="fill: rgb(64, 123, 255); transform-origin: 134.03px 138.75px; transform: rotate(-45deg);" class="animable"></circle></g></g><g id="freepik--character-2--inject-70" class="animable animator-active" style="transform-origin: 323.036px 283.748px;"><path d="M303.62,222.62,304,218l-5.58-4.36a2.31,2.31,0,0,0-1.43-.49h-3.72a2.34,2.34,0,0,0-2.29,1.91l-.74,4.13a2.32,2.32,0,0,0,1.66,2.65l3.49,1a2.09,2.09,0,0,1,.3.11C296.55,223.28,301.87,225.49,303.62,222.62Z" style="fill: rgb(228, 137, 123); transform-origin: 297.101px 218.612px;" id="elyl669i66d6" class="animable"></path><polygon points="312.82 222.9 302.03 216.64 300.33 222.85 310.29 229.06 312.82 222.9" style="fill: rgb(228, 137, 123); transform-origin: 306.575px 222.85px;" id="el9il22gk5rl8" class="animable"></polygon><path d="M334.9,201c1.58,4.29-.55,36.44-7.42,40.62-4.63,2.83-23.5-15.37-23.5-15.37l.68-8.29,15.93,9.46c1-17.58,0-29.44,5.53-32.15Z" style="fill: rgb(38, 50, 56); transform-origin: 319.688px 218.594px;" id="el2jf4cy2pre3" class="animable"></path><g id="elae8q8pfiyzp"><path d="M334.34,221.5c-1.08,8.15-3,16.26-5.89,19.29a4.68,4.68,0,0,1-1,.8,3.36,3.36,0,0,1-2.64.07C318,239.75,304,226.22,304,226.22l.68-8.29,15.93,9.46c1-17.58,0-29.44,5.53-32.15L334.9,201C335.7,203.13,335.55,212.34,334.34,221.5Z" style="fill: rgb(255, 255, 255); opacity: 0.3; transform-origin: 319.699px 218.568px;" class="animable"></path></g><g id="ele440ema2rp4"><path d="M334.34,221.5c-1.08,8.15-3,16.26-5.89,19.29a79.47,79.47,0,0,1-.42-32Z" style="opacity: 0.2; transform-origin: 330.473px 224.79px;" class="animable"></path></g><path d="M388.14,276.41s-25-11-53-.58c0,0-7.27-59.29-7.09-67.48s43.58-7.77,43.58-7.77,2.19,23.76,5.63,38S389.45,273.58,388.14,276.41Z" style="fill: rgb(38, 50, 56); transform-origin: 358.16px 238.493px;" id="el0ynsaqtzqsl" class="animable"></path><path d="M322.86,409.83l8.69-.23a.7.7,0,0,1,.69.52l1.83,7a1.15,1.15,0,0,1-1.1,1.44c-3.13,0-7.67,0-11.61.08-4.6.12-7.53-.11-12.94,0-3.26.09-4.29-3.18-2.93-3.51,6.17-1.52,10.21-1.22,15.47-4.67A3.73,3.73,0,0,1,322.86,409.83Z" style="fill: rgb(38, 50, 56); transform-origin: 319.507px 414.138px;" id="elvj6vud1jb09" class="animable"></path><path d="M367.07,409.83l8.69-.23a.7.7,0,0,1,.69.52l1.83,7a1.14,1.14,0,0,1-1.09,1.44c-3.14,0-7.68,0-11.62.08-4.6.12-7.53-.11-12.93,0-3.27.09-4.3-3.18-2.94-3.51,6.18-1.52,10.21-1.22,15.47-4.67A3.76,3.76,0,0,1,367.07,409.83Z" style="fill: rgb(38, 50, 56); transform-origin: 363.718px 414.138px;" id="el9bt0zi8mz36" class="animable"></path><path d="M381,250.6c4.18,18.12-3,160.64-3,160.64H364.11l-5.93-118.77L336.35,411.24l-14.81-1.08c9.68-92,18.25-146.93,18.25-146.93l0-7Z" style="fill: rgb(38, 50, 56); transform-origin: 351.924px 330.92px;" id="eljeci10cyey" class="animable"></path><g id="el0dfqsr8f4f5u"><path d="M321.54,410.16l14.82,1.08,17.17-93.5,4.65-25.27,5.93,118.77H378s7.18-142.52,3-160.63l-41.2,5.67,0,7S331.23,318.15,321.54,410.16Z" style="fill: rgb(255, 255, 255); opacity: 0.2; transform-origin: 351.924px 330.925px;" class="animable"></path></g><path d="M375.12,229.26c.24,1.15.48,2.27.72,3.35l.39,1.71c.28,1.19.55,2.36.82,3.47.14.56.27,1.12.41,1.66,1.59,6.53,2.91,11.27,3.22,13.37l-40.89,7.54c-1.88-4.58-3.49-9-4.87-13.12-.17-.5-.34-1-.49-1.5-.35-1.05-.67-2.08-1-3.1-.16-.52-.31-1-.47-1.56-.3-1-.59-2-.86-3-.15-.55-.3-1.09-.43-1.63-7.09-26.69-4.26-42-4.26-42a82,82,0,0,1,9.29-3.65c.66-.23,1.35-.42,2-.63a154,154,0,0,1,17.39-3.2c1.11-.15,2.23-.27,3.34-.37h.16a9.91,9.91,0,0,1,10.75,9.37c.31,5.53.89,11,1.62,16.13.77,5.5,1.72,10.72,2.72,15.47.08.44.17.87.26,1.29Z" style="fill: rgb(64, 123, 255); transform-origin: 353.766px 223.462px;" id="elqec4rtl2wjo" class="animable"></path><path d="M349.22,167.6c.08,5.91,1.1,16.49,5.58,19.16,0,0-9.3,7.94-12,8-1.9,0-4.54-3.23-4.54-3.23,5.64-3.2,4.55-7.8,2.65-11.86Z" style="fill: rgb(228, 137, 123); transform-origin: 346.53px 181.18px;" id="el78y8y4y3yxt" class="animable"></path><g id="el4go4z3ntnaw"><path d="M345.83,172.52l-4.93,7.14a18.27,18.27,0,0,1,1.13,3c2.2-1,4.79-4.52,4.53-7.1A8.77,8.77,0,0,0,345.83,172.52Z" style="opacity: 0.2; transform-origin: 343.739px 177.59px;" class="animable"></path></g><path d="M342.75,194.77s2.39,2,5.12,3.89c3.06-2.25,10.14-8.07,9.06-12.19-.66-1.14-4-1.38-4-1.38S350.24,190.17,342.75,194.77Z" style="fill: rgb(64, 123, 255); transform-origin: 349.896px 191.875px;" id="elmyhasvmg72s" class="animable"></path><path d="M342.75,194.77a22.37,22.37,0,0,0-3.55,5.33c-2.73-1.19-2.77-9.17-2-10.18a8.85,8.85,0,0,1,4.05-1.82A7.3,7.3,0,0,0,342.75,194.77Z" style="fill: rgb(64, 123, 255); transform-origin: 339.76px 194.1px;" id="elzq09g1mj5v" class="animable"></path><g id="elu9xjox3bdm"><g style="opacity: 0.5; transform-origin: 346.905px 192.595px;" class="animable"><path d="M342.75,194.77s2.39,2,5.12,3.89c3.06-2.25,10.14-8.07,9.06-12.19-.66-1.14-4-1.38-4-1.38S350.24,190.17,342.75,194.77Z" style="fill: rgb(255, 255, 255); transform-origin: 349.896px 191.875px;" id="elkz9iqlfoom" class="animable"></path><path d="M342.75,194.77a22.37,22.37,0,0,0-3.55,5.33c-2.73-1.19-2.77-9.17-2-10.18a8.85,8.85,0,0,1,4.05-1.82A7.3,7.3,0,0,0,342.75,194.77Z" style="fill: rgb(255, 255, 255); transform-origin: 339.76px 194.1px;" id="elgu87s6sjb2" class="animable"></path></g></g><path d="M390.46,277.9c-.55,1.46-3.6,1.91-3.6,1.91,1.15-8.35-1.71-15-4-19.38-5.71-10.72-21.73-22.8-27.78-38.35-.27-.67-.51-1.34-.73-2-6.52-20,1.64-34.5,1.64-34.5,1.1.14,2.17.29,3.18.46.77.12,1.51.26,2.22.39a66.69,66.69,0,0,1,11.26,3s2.79,34.29,5.63,49.76S391,276.45,390.46,277.9Z" style="fill: rgb(38, 50, 56); transform-origin: 371.153px 232.695px;" id="eldgzno77hfva" class="animable"></path><g id="elhj4cld7ez5t"><path d="M390.46,277.9c-.55,1.46-3.6,1.91-3.6,1.91,1.15-8.35-1.71-15-4-19.38-3.76-7.05-12-14.7-18.88-23.53a59.93,59.93,0,0,1-8.67-14.27c-.09-.18-.16-.37-.23-.55-.27-.67-.51-1.34-.73-2-6.52-20,1.64-34.5,1.64-34.5,1.1.14,2.17.29,3.18.46.77.12,1.51.26,2.22.39a66.69,66.69,0,0,1,11.26,3s.67,8.16,1.67,18.32c.38,3.77.8,7.82,1.26,11.83.83,7.31,1.76,14.49,2.7,19.61C381.1,254.63,391,276.45,390.46,277.9Z" style="fill: rgb(255, 255, 255); opacity: 0.3; transform-origin: 371.153px 232.695px;" class="animable"></path></g><g id="elxiy1l4oz09"><path d="M357.5,202.3s-2.86,10.61-2.46,19.78c-.27-.67-.51-1.34-.73-2-6.52-20,1.64-34.5,1.64-34.5,1.1.14,2.17.29,3.18.46l.92,11.26-6.28,1.38Z" style="opacity: 0.2; transform-origin: 355.917px 203.83px;" class="animable"></path></g><path d="M335,277.94l1.52,1a487.11,487.11,0,0,1-3.68-53.08c0-1.47,0-2.88,0-4.23-.06-25.73,3.71-30.59,4-30.88L333,192.19l-6.65,2.63C325.39,216.83,335,277.94,335,277.94Z" style="fill: rgb(38, 50, 56); transform-origin: 331.561px 234.845px;" id="elwmsiitmpaz" class="animable"></path><g id="el2gifecb9uhh"><path d="M335,277.94l1.52,1a487.11,487.11,0,0,1-3.68-53.08c0-1.47,0-2.88,0-4.23-.06-25.73,3.71-30.59,4-30.88L333,192.19l-6.65,2.63C325.39,216.83,335,277.94,335,277.94Z" style="fill: rgb(255, 255, 255); opacity: 0.3; transform-origin: 331.561px 234.845px;" class="animable"></path></g><g id="elsj7eqi43gp"><path d="M333.11,199.93,329,202.8s1.67,12.51,3.78,18.83c-.06-25.73,3.71-30.59,4-30.88L333,192.19a25.14,25.14,0,0,0-4.77,6.82Z" style="opacity: 0.2; transform-origin: 332.505px 206.19px;" class="animable"></path></g><g id="elud8hf8mtgt"><path d="M371.79,204.4a22.19,22.19,0,0,0,2.85,8.31c-.31-3-.61-5.94-.89-8.77A4.8,4.8,0,0,0,371.79,204.4Z" style="opacity: 0.1; transform-origin: 373.215px 208.325px;" class="animable"></path></g><g id="elluahndkcae"><path d="M353.53,317.74l4.65-25.27-.9-13.37S350.91,302.29,353.53,317.74Z" style="opacity: 0.2; transform-origin: 355.539px 298.42px;" class="animable"></path></g><path d="M329.68,156.9c-1.38,2.63-.49,6-.1,8.18s.66,5.1,2.77,1.49S334.59,150.05,329.68,156.9Z" style="fill: rgb(38, 50, 56); transform-origin: 331.336px 161.601px;" id="el2wkfbfya6md" class="animable"></path><path d="M349.28,163.06c.68,7.45,1.92,8.46-1.24,12.79-4.75,6.51-13.75,9-16.23,1.77-2.23-6.55-4.81-18.63,2-22.61A10.3,10.3,0,0,1,349.28,163.06Z" style="fill: rgb(255, 139, 123); transform-origin: 339.758px 167.804px;" id="elypej6lwmyn" class="animable"></path><path d="M349.3,168.17c-3.84.72-3.65-.92-3.5-1.33.64-1.78-1-3.83-2.82-6.54s3.36-7.49,8-7.17C355.22,153.43,355.72,167,349.3,168.17Z" style="fill: rgb(38, 50, 56); transform-origin: 348.378px 160.733px;" id="el946t90vgchn" class="animable"></path><path d="M333.66,173.94s2.79.16,7.67-2.61c-.27,1.78-1.2,3.43-4.15,4.22S333.66,173.94,333.66,173.94Z" style="fill: rgb(255, 255, 255); transform-origin: 337.495px 173.52px;" id="elo9znr9z1ea" class="animable"></path><path d="M353.41,167.47a6.77,6.77,0,0,1-2.84,4.12c-1.84,1.16-3.23-.6-3.11-2.88.1-2.06,1.19-5.14,3.22-5.36S353.93,165.31,353.41,167.47Z" style="fill: rgb(255, 139, 123); transform-origin: 350.491px 167.646px;" id="elkuhlwl7j1g" class="animable"></path><path d="M334,166.38a17.37,17.37,0,0,1-1.58,4.51,2.87,2.87,0,0,0,2.39.05Z" style="fill: rgb(255, 86, 82); transform-origin: 333.615px 168.778px;" id="elo82t99xuls" class="animable"></path><path d="M350.38,150c-2.06-2.11-15.36-1.28-20.07,1.61-2.44,1.49-2.24,3.88-1.25,5.08,3.5,4.24,7,.73,7,.73a6,6,0,0,1,8.5-.07l7.08-3.48A4.21,4.21,0,0,0,350.38,150Z" style="fill: rgb(38, 50, 56); transform-origin: 340.042px 153.802px;" id="eluk3v8fjeb5b" class="animable"></path><path d="M340.19,164.7c.1.62-.14,1.17-.55,1.23s-.82-.38-.92-1,.14-1.17.54-1.23S340.08,164.08,340.19,164.7Z" style="fill: rgb(38, 50, 56); transform-origin: 339.455px 164.815px;" id="el098plmbtbn9e" class="animable"></path><path d="M333.18,165.8c.11.62-.14,1.17-.54,1.24s-.82-.39-.92-1,.14-1.17.54-1.24S333.08,165.19,333.18,165.8Z" style="fill: rgb(38, 50, 56); transform-origin: 332.452px 165.92px;" id="el472vzq60x2d" class="animable"></path><path d="M342,162.1a.38.38,0,0,1-.37-.08,3,3,0,0,0-2.53-.85.37.37,0,1,1-.17-.71,3.67,3.67,0,0,1,3.21,1,.35.35,0,0,1-.14.61Z" style="fill: rgb(38, 50, 56); transform-origin: 340.427px 161.261px;" id="elqbm8hncxf1" class="animable"></path><path d="M329.76,163.88a.37.37,0,0,1-.21,0,.37.37,0,0,1-.25-.46,3.61,3.61,0,0,1,2.27-2.45.36.36,0,0,1,.46.25.36.36,0,0,1-.24.45,2.83,2.83,0,0,0-1.78,2A.35.35,0,0,1,329.76,163.88Z" style="fill: rgb(38, 50, 56); transform-origin: 330.665px 162.424px;" id="elbmoqzxr106k" class="animable"></path><polygon points="310.37 228.94 265.47 223.58 255.59 258.41 263.59 271.43 312.51 275.52 320.59 237.71 310.37 228.94" style="fill: rgb(38, 50, 56); transform-origin: 288.09px 249.55px;" id="elcpbaeppn6u" class="animable"></polygon><g id="elvewo8xk67r8"><polygon points="255.59 258.4 258.7 263.48 259.4 264.61 263.59 271.43 312.51 275.52 320.58 237.71 316.22 233.97 314.88 232.81 310.37 228.94 265.47 223.58 255.59 258.4" style="fill: rgb(255, 255, 255); opacity: 0.5; transform-origin: 288.085px 249.55px;" class="animable"></polygon></g><g id="elvo6yxjaznld"><polygon points="320.58 237.71 276.17 232.96 265.47 223.58 310.37 228.94 320.58 237.71" style="fill: rgb(255, 255, 255); opacity: 0.4; transform-origin: 293.025px 230.645px;" class="animable"></polygon></g><g id="elmff5yflvc8f"><polygon points="276.17 232.96 263.59 271.43 255.59 258.4 265.47 223.58 276.17 232.96" style="fill: rgb(255, 255, 255); opacity: 0.2; transform-origin: 265.88px 247.505px;" class="animable"></polygon></g><polygon points="258.7 263.48 259.4 264.61 271.03 228.57 316.22 233.97 314.88 232.81 270.21 227.83 258.7 263.48" style="fill: rgb(38, 50, 56); transform-origin: 287.46px 246.22px;" id="elltm4qg3ctll" class="animable"></polygon><polygon points="301.03 231.42 298.68 229.45 287.35 227.94 289.42 230.12 301.03 231.42" style="fill: rgb(38, 50, 56); transform-origin: 294.19px 229.68px;" id="elqfxnm43vajk" class="animable"></polygon><path d="M305.4,232.05s0-11.8-.41-12.57-16.26-2.59-17.45-2.76-5.86,11.52-5.86,11.52l1,1.34,3,.26s3.31-10.07,3.69-10.32,12.63,1.24,13,1.49-.53,9.28-.53,9.28l1.1,1.43Z" style="fill: rgb(38, 50, 56); transform-origin: 293.54px 224.384px;" id="elqiu48ej942e" class="animable"></path><path d="M258.36,253l3.44,4.14.28-.87,2.2-6.81.27-.82.47-1.46s-.91,1.12-2.15,2.4A14.11,14.11,0,0,1,258.36,253Z" style="fill: rgb(64, 123, 255); transform-origin: 261.69px 252.16px;" id="elwvko1nvtq4l" class="animable"></path><g id="elo4ru3xzmii"><path d="M259.45,253.31l2.63,3,2.2-6.81.27-.82C263.45,250.16,261.45,252.56,259.45,253.31Z" style="fill: rgb(255, 255, 255); opacity: 0.2; transform-origin: 262px 252.495px;" class="animable"></path></g><g id="elmkpwcojyo2f"><path d="M262.87,249.62c.48-.06,1-.1,1.41-.12l.74-2.28S264.11,248.34,262.87,249.62Z" style="opacity: 0.2; transform-origin: 263.945px 248.42px;" class="animable"></path></g><path d="M256.74,244.7l-.33,6.07a13.86,13.86,0,0,1,7.92-1.43l.27-.85,1.7-5.28.18-.55S261,242.28,256.74,244.7Z" style="fill: rgb(64, 123, 255); transform-origin: 261.445px 246.704px;" id="el2n8l8e3wrxm" class="animable"></path><path d="M262.58,234.17a23.07,23.07,0,0,0,4.84,5.89l.19-.64.52-1.68.87-2.8.42-1.36.12-.39a24.59,24.59,0,0,1-2.25-3.75Z" style="fill: rgb(64, 123, 255); transform-origin: 266.06px 234.75px;" id="ely4c8jsyi91k" class="animable"></path><path d="M272.43,225.92a12.08,12.08,0,0,1,1.53,3l.71.09,1,.11,1.55.2,1.5.18.53.06a9.67,9.67,0,0,0-2.73-6.16Z" style="fill: rgb(64, 123, 255); transform-origin: 275.84px 226.48px;" id="ellycmdi5iaq" class="animable"></path><g id="el0jgcx7mqfbco"><path d="M273.36,226a15.23,15.23,0,0,1,1.31,3l1,.11a1,1,0,0,1-.16-.86,1.05,1.05,0,0,1,2,.55,1,1,0,0,1-.32.51l1.5.18c-.18-1.28-.71-3.9-2.21-5.33Z" style="fill: rgb(255, 255, 255); opacity: 0.2; transform-origin: 276.025px 226.825px;" class="animable"></path></g><g id="el83fqbxujfzh"><path d="M257.16,244.92l-.15,4.92s4.19-1.68,7.59-1.35l1.7-5.28A18,18,0,0,0,257.16,244.92Zm5.33-.66a1.39,1.39,0,1,1-1.55,1.54C260.85,245.06,261.55,244.37,262.49,244.26Z" style="fill: rgb(255, 255, 255); opacity: 0.2; transform-origin: 261.655px 246.499px;" class="animable"></path></g><g id="el2qf63idguvg"><path d="M263.45,234.41a28.32,28.32,0,0,0,4.16,5l.52-1.68a1.48,1.48,0,0,1,.81-2.83s.05,0,.06,0l.42-1.36a12.08,12.08,0,0,1-2.19-3.06Z" style="fill: rgb(255, 255, 255); opacity: 0.2; transform-origin: 266.435px 234.945px;" class="animable"></path></g><g id="el2d5cb4tjnim"><path d="M375.54,219.55c-2.8,6.57-7.16,15-11.6,17.35a59.93,59.93,0,0,1-8.67-14.27c2-5.21,6.27-15.54,9.4-17.7,2.36-1.62,6.46.55,9.61,2.79C374.66,211.49,375.08,215.54,375.54,219.55Z" style="opacity: 0.2; transform-origin: 365.405px 220.634px;" class="animable"></path></g><path d="M321.17,232.66l-7.87.42,4.69,8.79s6.61-1.84,6-5.46Z" style="fill: rgb(228, 137, 123); transform-origin: 318.665px 237.265px;" id="elp3a9wab3j2o" class="animable"></path><polygon points="308.43 237.31 312.64 244.41 318 241.87 313.3 233.08 308.43 237.31" style="fill: rgb(228, 137, 123); transform-origin: 313.215px 238.745px;" id="elj0do7fwzzt" class="animable"></polygon><polygon points="333.2 231.06 320.54 232.8 321.59 238.87 333.17 237.51 333.2 231.06" style="fill: rgb(228, 137, 123); transform-origin: 326.87px 234.965px;" id="elv2ovszoe6p" class="animable"></polygon><path d="M372.61,189.4c9.07,5.36-2.93,45.07-9.92,47.31s-31.18,1.5-31.18,1.5l-1.28-7.69,27.27-3.7a126.91,126.91,0,0,0,5-21.23A23.39,23.39,0,0,1,372.61,189.4Z" style="fill: rgb(38, 50, 56); transform-origin: 353.05px 213.864px;" id="el0yl30znybtfd" class="animable"></path><g id="elmnqfvmdi8ls"><path d="M372.61,189.4c9.07,5.36-2.93,45.07-9.92,47.31s-31.18,1.5-31.18,1.5l-1.28-7.69,27.27-3.7a126.91,126.91,0,0,0,5-21.23A23.39,23.39,0,0,1,372.61,189.4Z" style="fill: rgb(255, 255, 255); opacity: 0.3; transform-origin: 353.05px 213.864px;" class="animable"></path></g></g><g id="freepik--character-1--inject-70" class="animable" style="transform-origin: 166.254px 296.418px;"><path d="M151.76,224.82c3,5.33,5.67,11.27,9.71,15.87,2.76,2.71,5.8,5.23,8.87,7.9,2.75,2.37,5.52,4.77,8.21,7.26a2.65,2.65,0,0,1-3,4.33,130.21,130.21,0,0,1-19.24-11.52c-.76-.6-1.78-1.39-2.46-2.06-5.06-4.92-8.6-10.85-11.65-17.13-2.73-6.32,6.21-10.68,9.51-4.65Z" style="fill: rgb(220, 137, 124); transform-origin: 160.574px 241.22px;" id="el4svk040xsps" class="animable"></path><path d="M168.21,246.05l-8.6,6.54s-4.92-4.09-8.55-7.67a21.4,21.4,0,0,1-3.64-4.27c-.73-1.48.09-6,1.13-10.27,1.11-4.54,2.46-8.79,2.46-8.79,2.35,2.76,8.22,15.5,8.22,15.5Z" style="fill: rgb(64, 123, 255); transform-origin: 157.676px 237.09px;" id="elhbs3larkr9" class="animable"></path><g id="el23rm0p6m477"><path d="M151.06,244.92a21.4,21.4,0,0,1-3.64-4.27c-.73-1.48.09-6,1.13-10.27C150.05,230.74,152.36,237.09,151.06,244.92Z" style="opacity: 0.2; transform-origin: 149.292px 237.65px;" class="animable"></path></g><path d="M147.81,268c-2.7,8.55-10.34,15.35-19.42,8.42s8.55-41.2,15-44S147.81,268,147.81,268Z" style="fill: rgb(64, 123, 255); transform-origin: 136.978px 255.776px;" id="eli3iucb9kpy7" class="animable"></path><g id="elnslq5hmqgls"><path d="M147.81,268c-2.7,8.55-10.34,15.35-19.42,8.42s8.55-41.2,15-44S147.81,268,147.81,268Z" style="opacity: 0.2; transform-origin: 136.978px 255.776px;" class="animable"></path></g><path d="M172.3,418.68c-5.9,0-6.68-.09-10-.21-2.84-.1-3.51.26-5.79.21-1.91,0-1.84-1.87-1.25-4,.29-1.06.75-3.28,1.15-5l8.64-.62c1.21,2.32,4,5.63,7.28,6.07C175.51,415.61,174.65,418.68,172.3,418.68Z" style="fill: rgb(64, 123, 255); transform-origin: 164.647px 413.872px;" id="el9odfpncxo3s" class="animable"></path><path d="M121.45,261.23h22c1.32,8.15,7.51,47,8.64,68.16,1.32,24.91,9.3,64.8,13.53,80.39-1.19,1.06-6.78,1.51-9.42.19,0,0-23-46-20-74.77C118.73,286.13,120.88,264.84,121.45,261.23Z" style="fill: rgb(64, 123, 255); transform-origin: 143.339px 336.007px;" id="elztxkcg2p1si" class="animable"></path><g id="elslhjip03mc7"><g style="opacity: 0.7; transform-origin: 143.339px 336.007px;" class="animable"><path d="M121.45,261.23h22c1.32,8.15,7.51,47,8.64,68.16,1.32,24.91,9.3,64.8,13.53,80.39-1.19,1.06-6.78,1.51-9.42.19,0,0-23-46-20-74.77C118.73,286.13,120.88,264.84,121.45,261.23Z" style="fill: rgb(255, 255, 255); transform-origin: 143.339px 336.007px;" id="elv20sroyn479" class="animable"></path></g></g><path d="M129.59,418.68c-5.9,0-6.68-.09-10-.21-2.84-.1-3.51.26-5.79.21-1.91,0-1.84-1.87-1.25-4,.29-1.06.75-3.28,1.15-5l8.64-.62c1.21,2.32,4,5.63,7.28,6.07S131.94,418.68,129.59,418.68Z" style="fill: rgb(64, 123, 255); transform-origin: 121.957px 413.872px;" id="elkl4m0w8v2zj" class="animable"></path><g id="elvi8dh5ko6gb"><path d="M130.45,317.94c-2.74-9-4.71-16.86-6.11-23.57,1.39-5.25,3.35-9.75,6-12.45C130.37,281.92,134.21,296.55,130.45,317.94Z" style="opacity: 0.2; transform-origin: 128.22px 299.93px;" class="animable"></path></g><path d="M112.44,261.23h22.89c-1.57,12.06-6.41,48.86-9.4,68.31-3.79,24.65-4.28,64.21-3.33,80.33-1.38.8-6.41,1.77-9.13.92,0,0-12.86-49.86-4.32-78.82C102,279.31,111,263.36,112.44,261.23Z" style="fill: rgb(64, 123, 255); transform-origin: 120.776px 336.175px;" id="elm9mv5o03o1" class="animable"></path><g id="elkmhtieg4vs"><g style="opacity: 0.7; transform-origin: 120.776px 336.175px;" class="animable"><path d="M112.44,261.23h22.89c-1.57,12.06-6.41,48.86-9.4,68.31-3.79,24.65-4.28,64.21-3.33,80.33-1.38.8-6.41,1.77-9.13.92,0,0-12.86-49.86-4.32-78.82C102,279.31,111,263.36,112.44,261.23Z" style="fill: rgb(255, 255, 255); transform-origin: 120.776px 336.175px;" id="elqx5vzsfqxld" class="animable"></path></g></g><path d="M148.73,187.69s2.23,13.64-2.14,18.44-19.44,5.79-24.45-3.07-1.94-21.81,9.57-24.48S148.73,187.69,148.73,187.69Z" style="fill: rgb(38, 50, 56); transform-origin: 134.56px 193.967px;" id="el8aet0ikkl7h" class="animable"></path><path d="M116.37,214.74a145.76,145.76,0,0,1,.42,15.7c-.07,2.92-.2,6.16-.45,9.65a179,179,0,0,1-2.72,21.16l30,5s10.55-34.27,4.61-46.87C148.2,219.35,134,209.56,116.37,214.74Z" style="fill: rgb(38, 50, 56); transform-origin: 131.832px 239.739px;" id="elmia28kbaa4d" class="animable"></path><path d="M211.11,253.68l-2.32-.36a2.71,2.71,0,0,0-2.37.78L203.53,257a5.05,5.05,0,0,0-1.38,4.45l.17,1c3.8.87,8.55-1,8.55-1l1.41-.37a2.27,2.27,0,0,0,1.68-2.76l-.71-2.81A2.63,2.63,0,0,0,211.11,253.68Z" style="fill: rgb(228, 137, 123); transform-origin: 208.049px 257.983px;" id="elj0nhlkk9269" class="animable"></path><path d="M136.82,226.57,126.45,214c3.44-2.53,3.32-11.08,2.84-15.82l8,8.91c-1.2,3.42-1.67,7.19,3.27,9.25C140.53,216.36,136.81,226.54,136.82,226.57Z" style="fill: rgb(228, 137, 123); transform-origin: 133.505px 212.375px;" id="elqjuv4iwgvop" class="animable"></path><g id="eluqeifqdh8mm"><path d="M132.54,201.84l4.72,5.26a14.73,14.73,0,0,0-.67,2.46c-1.9-.6-4.36-3.18-4.38-5.26A6.79,6.79,0,0,1,132.54,201.84Z" style="opacity: 0.2; transform-origin: 134.731px 205.7px;" class="animable"></path></g><path d="M126.28,190c.47,7.13.53,10.15,4.11,14C135.77,209.7,144.32,208,146,201c1.48-6.32.45-16.92-6.46-20.09A9.16,9.16,0,0,0,126.28,190Z" style="fill: rgb(228, 137, 123); transform-origin: 136.41px 193.671px;" id="elkso95dt26ok" class="animable"></path><path d="M132.88,185.65c-4.44,4.51,2.78,11.17-5.09,9.89s-3.32-12.06,1.68-14S132.88,185.65,132.88,185.65Z" style="fill: rgb(38, 50, 56); transform-origin: 128.33px 188.428px;" id="elduriaiepige" class="animable"></path><path d="M137.19,192.46c0,.6.34,1.1.72,1.12s.68-.46.66-1.06-.33-1.1-.71-1.11S137.18,191.86,137.19,192.46Z" style="fill: rgb(38, 50, 56); transform-origin: 137.88px 192.495px;" id="elpnvuxa2usyi" class="animable"></path><path d="M144.37,192.89c0,.6.33,1.11.71,1.12s.68-.45.67-1-.34-1.1-.72-1.12S144.35,192.29,144.37,192.89Z" style="fill: rgb(38, 50, 56); transform-origin: 145.06px 192.95px;" id="eltmisdbv0xw" class="animable"></path><path d="M144.86,191.86l1.4-.35S145.56,192.61,144.86,191.86Z" style="fill: rgb(38, 50, 56); transform-origin: 145.56px 191.816px;" id="elg4ngrtif6zd" class="animable"></path><path d="M142.39,193.79a17.66,17.66,0,0,0,2.17,3.93,2.4,2.4,0,0,1-2.07.3Z" style="fill: rgb(222, 87, 83); transform-origin: 143.475px 195.961px;" id="el0o7dicmr0nxm" class="animable"></path><path d="M139.19,200.09a5.81,5.81,0,0,0,1,.13.16.16,0,0,0,.16-.17.17.17,0,0,0-.17-.18,5,5,0,0,1-3.81-2,.17.17,0,1,0-.29.17A5.24,5.24,0,0,0,139.19,200.09Z" style="fill: rgb(38, 50, 56); transform-origin: 138.196px 198.992px;" id="ellhwrtzufqjb" class="animable"></path><path d="M124.8,196.62a4.93,4.93,0,0,0,2.65,3c1.57.62,2.5-1.16,2.18-3.08-.28-1.73-1.45-4.14-3.08-3.93S124.17,194.89,124.8,196.62Z" style="fill: rgb(228, 137, 123); transform-origin: 127.135px 196.171px;" id="el76mzso2311q" class="animable"></path><path d="M135.58,189.05a.36.36,0,0,0,.26-.07,2.55,2.55,0,0,1,2.36-.6.31.31,0,0,0,.41-.23.37.37,0,0,0-.25-.44,3.19,3.19,0,0,0-3,.72.35.35,0,0,0,0,.49A.34.34,0,0,0,135.58,189.05Z" style="fill: rgb(38, 50, 56); transform-origin: 136.94px 188.324px;" id="elbroximpcuvf" class="animable"></path><path d="M146.37,189.7a.36.36,0,0,0,.25,0,.35.35,0,0,0,.07-.49,3.69,3.69,0,0,0-2.79-1.67.32.32,0,0,0-.32.35.38.38,0,0,0,.36.36,2.92,2.92,0,0,1,2.2,1.34A.36.36,0,0,0,146.37,189.7Z" style="fill: rgb(38, 50, 56); transform-origin: 145.169px 188.631px;" id="elakw2lcnh6w" class="animable"></path><path d="M137.69,191.43l1.39-.35S138.39,192.17,137.69,191.43Z" style="fill: rgb(38, 50, 56); transform-origin: 138.385px 191.384px;" id="el5rnyl7tpg3x" class="animable"></path><path d="M139.78,182.89s.49,4.56-6.66,7.55a8.46,8.46,0,0,0,3.81-5.13s-2.72,5.79-8.13,5.51-4.53,13.1-2.09,17.35c0,0-6.9-4.31-7.52-9.37,0,0,.67,4.88,3.47,7.37,0,0-4.6-2.07-6.8-10.89-2.69-10.71,5.62-18.9,12.13-20.39,9.78-2.23,12.62,1.3,12.62,1.3s3.08-1.72,7.41,4.23,6.37,18.63,1.13,25.06a31.83,31.83,0,0,0-1.3-14.64s-4.47-1.25-7-7.32a6.73,6.73,0,0,1-3.94,5.75S139.56,187.66,139.78,182.89Z" style="fill: rgb(38, 50, 56); transform-origin: 133.805px 191.161px;" id="elbpztoid6c2a" class="animable"></path><polygon points="144.1 268.04 144.3 263.77 113.65 258.69 111.92 262.16 144.1 268.04" style="fill: rgb(64, 123, 255); transform-origin: 128.11px 263.365px;" id="elb5e6rqrivwp" class="animable"></polygon><g id="eltacrqmwmgx"><polygon points="144.1 268.04 144.3 263.77 113.65 258.69 111.92 262.16 144.1 268.04" style="fill: rgb(255, 255, 255); opacity: 0.7; transform-origin: 128.11px 263.365px;" class="animable"></polygon></g><polygon points="122.51 263.69 112.37 262 113.46 259.22 122.99 260.8 122.51 263.69" style="fill: rgb(38, 50, 56); transform-origin: 117.68px 261.455px;" id="elt7rlnrvdgb" class="animable"></polygon><polygon points="141.41 263.85 144.44 264.36 144.23 267.29 140.93 266.75 141.41 263.85" style="fill: rgb(38, 50, 56); transform-origin: 142.685px 265.57px;" id="elxj5tj4v63q" class="animable"></polygon><g id="el37dbolbu8nd"><rect x="130.48" y="255.44" width="2.93" height="16.65" style="fill: rgb(38, 50, 56); transform-origin: 131.945px 263.765px; transform: rotate(-80.58deg);" class="animable"></rect></g><g id="elk3j4p5oxnq"><rect x="130.5" y="262.31" width="5.62" height="3.37" rx="0.56" style="fill: rgb(255, 255, 255); transform-origin: 133.31px 263.995px; transform: rotate(-170.58deg);" class="animable"></rect></g><path d="M129.51,228.48a19.93,19.93,0,0,1-.25,3.3c-.62,3.92-2.62,9.32-5.2,14.69-4.59,9.59-11,19.12-14.63,20.11l4.62-10.81,1.15-20.31.63-11.23.54-9.49s4.25-1.55,6.62-1.51C123,213.23,129.42,219.34,129.51,228.48Z" style="fill: rgb(64, 123, 255); transform-origin: 119.47px 239.905px;" id="elzb4lx66sy6p" class="animable"></path><path d="M143.34,216.76A90.66,90.66,0,0,1,145.75,234c.39,9.47,2.06,34,2.06,34s3.59-38.17,3.2-46.45C151,221.59,146.94,217.54,143.34,216.76Z" style="fill: rgb(64, 123, 255); transform-origin: 147.19px 242.38px;" id="ellp40yl01ag" class="animable"></path><path d="M172.78,291.5c-2.52,3.16-8.9,2.26-14.24-2s-7.64-10.28-5.13-13.43,8.9-2.27,14.25,2S175.3,288.34,172.78,291.5Z" style="fill: rgb(38, 50, 56); transform-origin: 163.099px 283.786px;" id="eltniqrk2vncc" class="animable"></path><path d="M185.18,284.23a3.59,3.59,0,0,0,2.37-1.19c2.47-3.1-2.12-10.88-10.26-17.36s-16.74-9.23-19.21-6.13a3.54,3.54,0,0,0-.63,2.58,2.87,2.87,0,0,0-1,.8,3.45,3.45,0,0,0-.6,2.56,2.82,2.82,0,0,0-1.07.81,3.33,3.33,0,0,0-.56,2.57,2.71,2.71,0,0,0-1.12.8,3.31,3.31,0,0,0-.52,2.58,2.64,2.64,0,0,0-1.15.79c-2,2.58,1.77,9,8.53,14.44s13.92,7.67,16,5.09a2.6,2.6,0,0,0,.52-1.3,3.33,3.33,0,0,0,2.4-1.08,2.73,2.73,0,0,0,.53-1.27,3.37,3.37,0,0,0,2.38-1.12,2.72,2.72,0,0,0,.55-1.22,3.52,3.52,0,0,0,2.37-1.16A2.88,2.88,0,0,0,185.18,284.23Z" style="fill: rgb(38, 50, 56); transform-origin: 169.556px 275.958px;" id="elg7kzaazxxqe" class="animable"></path><g id="eliczh0awqs8n"><path d="M185.18,284.23a3.59,3.59,0,0,0,2.37-1.19c2.47-3.1-2.12-10.88-10.26-17.36s-16.74-9.23-19.21-6.13a3.54,3.54,0,0,0-.63,2.58,2.87,2.87,0,0,0-1,.8,3.45,3.45,0,0,0-.6,2.56,2.82,2.82,0,0,0-1.07.81,3.33,3.33,0,0,0-.56,2.57,2.71,2.71,0,0,0-1.12.8,3.31,3.31,0,0,0-.52,2.58,2.64,2.64,0,0,0-1.15.79c-2,2.58,1.77,9,8.53,14.44s13.92,7.67,16,5.09a2.6,2.6,0,0,0,.52-1.3,3.33,3.33,0,0,0,2.4-1.08,2.73,2.73,0,0,0,.53-1.27,3.37,3.37,0,0,0,2.38-1.12,2.72,2.72,0,0,0,.55-1.22,3.52,3.52,0,0,0,2.37-1.16A2.88,2.88,0,0,0,185.18,284.23Z" style="fill: rgb(255, 255, 255); opacity: 0.3; transform-origin: 169.556px 275.958px;" class="animable"></path></g><path d="M219,266.2a33.35,33.35,0,1,0-58.67-13.8,5.47,5.47,0,0,1-1.37,5,1.12,1.12,0,0,0-.18.2c-2.51,3.15,2.15,11,10.42,17.63s17,9.37,19.51,6.22l.15-.21a5.52,5.52,0,0,1,4.59-2.45A33.29,33.29,0,0,0,219,266.2Z" style="fill: rgb(64, 123, 255); transform-origin: 192.193px 247.399px;" id="el2te06kv9txu" class="animable"></path><g id="elpz6gm4djbn"><path d="M219,266.2a33.35,33.35,0,1,0-58.67-13.8,5.47,5.47,0,0,1-1.37,5,1.12,1.12,0,0,0-.18.2c-2.51,3.15,2.15,11,10.42,17.63s17,9.37,19.51,6.22l.15-.21a5.52,5.52,0,0,1,4.59-2.45A33.29,33.29,0,0,0,219,266.2Z" style="fill: rgb(255, 255, 255); opacity: 0.7; transform-origin: 192.193px 247.399px;" class="animable"></path></g><path d="M177.52,274.55a.24.24,0,0,1-.17-.42c.48-.45,11.55-10.82,21.07-10.1l-4.27-3.4a.25.25,0,0,1-.08-.25L195.3,256l-8.15,4a.24.24,0,0,1-.34-.27l2.05-8.89L181.3,254a.28.28,0,0,1-.25,0,.23.23,0,0,1-.08-.23l1.42-8.06-4.07,2.2a.24.24,0,0,1-.26,0l-4.46-3.55c.25,2.66.87,13.94-5.8,22.31a.24.24,0,0,1-.37-.3c7.43-9.33,5.65-22.4,5.63-22.53a.24.24,0,0,1,.12-.24.26.26,0,0,1,.27,0l4.78,3.81L182.6,245a.25.25,0,0,1,.26,0,.23.23,0,0,1,.09.23l-1.43,8.11,7.58-3.21a.25.25,0,0,1,.25,0,.24.24,0,0,1,.08.24l-2,8.86,8.18-4a.25.25,0,0,1,.26,0,.23.23,0,0,1,.07.25l-1.33,4.79,4.79,3.81a.25.25,0,0,1,.07.28.24.24,0,0,1-.25.15c-9.44-1.39-21.38,9.77-21.5,9.88A.2.2,0,0,1,177.52,274.55Z" style="fill: rgb(38, 50, 56); transform-origin: 183.44px 259.056px;" id="eldz6d2ivy1hr" class="animable"></path><g id="el9h8ibb6jbk"><path d="M218,240.88c-4,5.13-13.23,4.62-20.62-1.14s-10.15-14.58-6.16-19.71,13.23-4.62,20.62,1.14S222,235.75,218,240.88Z" style="fill: rgb(255, 255, 255); opacity: 0.2; transform-origin: 204.612px 230.455px;" class="animable"></path></g><g id="eli4x0pokl0a"><path d="M191.41,267.57c-2.91,3.74-9.65,3.37-15-.83s-7.4-10.64-4.49-14.38,9.65-3.38,15,.82S194.32,263.82,191.41,267.57Z" style="fill: rgb(255, 255, 255); opacity: 0.2; transform-origin: 181.665px 259.963px;" class="animable"></path></g><g id="elwhqph1mt1a"><path d="M129.51,228.48a19.93,19.93,0,0,1-.25,3.3c-.62,3.92-2.62,9.32-5.2,14.69a60.35,60.35,0,0,1-8.86-11l.63-11.23c3.55-1.16,7.81-2,10-.59A13.13,13.13,0,0,1,129.51,228.48Z" style="opacity: 0.2; transform-origin: 122.355px 234.691px;" class="animable"></path></g><path d="M123.67,220.54c1.91,5.22,3.47,10.51,5.71,15.43,1.43,2.51,3.9,4.36,6.15,6.45,3.41,3,7.06,5.86,10.74,8.71l11.14,8.57a2.63,2.63,0,0,1-2.78,4.44c-4.28-2.15-8.43-4.44-12.54-6.88s-8.14-5-12.09-7.9c-3.1-2.33-6.6-4.94-8.9-8.32a35.54,35.54,0,0,1-2.07-3.57,84.09,84.09,0,0,1-5.43-13.68c-1.84-6.67,7.68-9.73,10.07-3.25Z" style="fill: rgb(220, 137, 124); transform-origin: 135.907px 240.692px;" id="el27ea4ys636n" class="animable"></path><path d="M116.37,214.74a10.37,10.37,0,0,1,6.62,2.68c3.77,3.73,5.88,15.12,8.39,19.49,1.72,3,9.45,9.78,9.45,9.78l-9.45,6.59s-7.64-6.78-10.32-11.24S108.08,220.63,116.37,214.74Z" style="fill: rgb(64, 123, 255); transform-origin: 127.017px 234.01px;" id="elymakrlx50dr" class="animable"></path><path d="M154.67,258.76l7.17-2.08-1.35,8.17s-6.51,1.47-7.13-1.91Z" style="fill: rgb(228, 137, 123); transform-origin: 157.6px 260.924px;" id="elxhtnlsj1qu" class="animable"></path><polygon points="168.98 258.61 165.43 265.25 160.49 264.85 161.84 256.68 168.98 258.61" style="fill: rgb(228, 137, 123); transform-origin: 164.735px 260.965px;" id="elx3lddjuduum" class="animable"></polygon></g><defs>     <filter id="active" height="200%">         <feMorphology in="SourceAlpha" result="DILATED" operator="dilate" radius="2"></feMorphology>                <feFlood flood-color="#32DFEC" flood-opacity="1" result="PINK"></feFlood>        <feComposite in="PINK" in2="DILATED" operator="in" result="OUTLINE"></feComposite>        <feMerge>            <feMergeNode in="OUTLINE"></feMergeNode>            <feMergeNode in="SourceGraphic"></feMergeNode>        </feMerge>    </filter>    <filter id="hover" height="200%">        <feMorphology in="SourceAlpha" result="DILATED" operator="dilate" radius="2"></feMorphology>                <feFlood flood-color="#ff0000" flood-opacity="0.5" result="PINK"></feFlood>        <feComposite in="PINK" in2="DILATED" operator="in" result="OUTLINE"></feComposite>        <feMerge>            <feMergeNode in="OUTLINE"></feMergeNode>            <feMergeNode in="SourceGraphic"></feMergeNode>        </feMerge>            <feColorMatrix type="matrix" values="0   0   0   0   0                0   1   0   0   0                0   0   0   0   0                0   0   0   1   0 "></feColorMatrix>    </filter></defs></svg>